<svg width="77" height="68" viewBox="0 0 77 68" fill="none" xmlns="http://www.w3.org/2000/svg">
<g filter="url(#filter0_d)">
<path fill-rule="evenodd" clip-rule="evenodd" d="M10.3948 2.44604C8.16477 7.15504 7.65727 16.4691 9.36475 21.3461C9.73505 22.4039 10.1284 23.6725 10.239 24.1655C10.507 25.3616 13.9875 33.4607 15.3835 36.1374C16.7536 38.7639 16.7282 38.7901 14.1004 37.4541C10.3206 35.5326 7.34752 31.5826 6.05042 26.7593C5.13115 23.3408 4.00397 23.2777 4.0773 26.6488C4.20522 32.5289 9.17522 38.814 16.5882 42.4708C19.5288 43.9211 18.6779 42.7686 25.2467 54.2024C28.0457 59.0747 28.1808 59.2308 29.5972 59.2308C31.3561 59.2308 31.6071 58.8444 32.5953 54.6155C33.5972 50.3279 34.7228 46.6075 35.9289 43.5965L36.7948 41.4347L35.8533 40.1431C35.3355 39.4326 34.798 38.8502 34.6593 38.8488C34.1948 38.844 32.0869 43.6096 30.7646 47.6535L29.4569 51.6532L27.9027 49.3844C26.4623 47.2811 21.952 38.948 20.8384 36.3319C16.847 26.9553 18.4788 15.6138 24.3028 12.2518C26.3567 11.066 25.9794 9.6086 23.8173 10.3764C19.3945 11.9471 15.3867 18.6498 14.9586 25.1924C14.8617 26.6725 13.7457 24.0611 12.6236 19.7287C11.4723 15.2835 11.3727 6.67708 12.4353 3.47029C13.3889 0.593038 11.6789 -0.265299 10.3948 2.44604ZM63.6933 1.30982C63.574 1.59996 63.6634 2.85175 63.8918 4.09177C65.1044 10.6744 64.7708 16.6257 62.8924 21.9231C61.5846 25.6113 61.0736 26.3963 61.0652 24.7304C61.0377 19.3638 57.3148 12.8507 53.0733 10.7489C49.9222 9.18752 49.6274 10.2683 52.518 12.7851C60.5554 19.7834 58.8527 33.9088 48.1036 49.4043L46.5157 51.6933L45.9636 49.7889C44.4831 44.6822 43.9738 43.3696 42.0497 39.7006L39.9766 35.7474L41.6433 33.7295C42.56 32.6197 44.4344 31.032 45.8087 30.2013C47.183 29.3706 48.2428 28.5095 48.1637 28.2878C47.6667 26.893 43.9378 28.4095 40.4521 31.4239L38.0308 33.5178L35.8846 31.5955C33.582 29.5331 29.8581 27.5444 28.6935 27.7554C27.4517 27.9804 27.6045 28.7779 29.0178 29.4484C35.5726 32.5583 40.2416 40.8258 43.5563 55.1923C44.3933 58.8197 44.6819 59.2308 46.3925 59.2308C47.7998 59.2308 47.9577 59.0614 50.1602 55.1923C51.5179 52.8072 55.0517 46.8561 56.3433 44.7796C56.8356 43.988 58.1098 43.1056 60.201 42.1082C66.3316 39.1839 71.1378 33.2911 72.1072 27.5107C72.7914 23.4293 71.2122 22.8184 70.0997 26.7343C68.7094 31.6287 65.3194 36.0255 61.5225 37.8595C59.6437 38.767 59.6206 38.591 61.1947 35.3476C68.3238 20.6586 69.7354 10.406 65.7265 2.43362C65.0403 1.06904 64.0232 0.506894 63.6933 1.30982Z" fill="white"/>
</g>
<defs>
<filter id="filter0_d" x="-1" y="0" width="78" height="68" filterUnits="userSpaceOnUse" color-interpolation-filters="sRGB">
<feFlood flood-opacity="0" result="BackgroundImageFix"/>
<feColorMatrix in="SourceAlpha" type="matrix" values="0 0 0 0 0 0 0 0 0 0 0 0 0 0 0 0 0 0 127 0"/>
<feOffset dy="4"/>
<feGaussianBlur stdDeviation="2"/>
<feColorMatrix type="matrix" values="0 0 0 0 0 0 0 0 0 0 0 0 0 0 0 0 0 0 0.25 0"/>
<feBlend mode="normal" in2="BackgroundImageFix" result="effect1_dropShadow"/>
<feBlend mode="normal" in="SourceGraphic" in2="effect1_dropShadow" result="shape"/>
</filter>
</defs>
</svg>
